<?xml version="1.0" encoding="UTF-8" standalone="no"?>
<svg
   xmlns:dc="http://purl.org/dc/elements/1.1/"
   xmlns:cc="http://creativecommons.org/ns#"
   xmlns:rdf="http://www.w3.org/1999/02/22-rdf-syntax-ns#"
   xmlns:svg="http://www.w3.org/2000/svg"
   xmlns="http://www.w3.org/2000/svg"
   xmlns:sodipodi="http://sodipodi.sourceforge.net/DTD/sodipodi-0.dtd"
   xmlns:inkscape="http://www.inkscape.org/namespaces/inkscape"
   id="Layer_1"
   style="enable-background:new 0 0 512 512;"
   version="1.1"
   viewBox="0 0 512 512"
   xml:space="preserve"
   inkscape:version="0.91 r13725"
   sodipodi:docname="book.svg"
   inkscape:export-filename="C:\Users\edwin\Apps\python\workspace\cobiv\cobiv\resources\icons\book.png"
   inkscape:export-xdpi="21.09375"
   inkscape:export-ydpi="21.09375"><metadata
     id="metadata11"><rdf:RDF><cc:Work
         rdf:about=""><dc:format>image/svg+xml</dc:format><dc:type
           rdf:resource="http://purl.org/dc/dcmitype/StillImage" /><dc:title /></cc:Work></rdf:RDF></metadata><defs
     id="defs9" /><sodipodi:namedview
     pagecolor="#ffffff"
     bordercolor="#666666"
     borderopacity="1"
     objecttolerance="10"
     gridtolerance="10"
     guidetolerance="10"
     inkscape:pageopacity="0"
     inkscape:pageshadow="2"
     inkscape:window-width="1366"
     inkscape:window-height="705"
     id="namedview7"
     showgrid="false"
     inkscape:zoom="0.4609375"
     inkscape:cx="-68.338983"
     inkscape:cy="256"
     inkscape:window-x="-8"
     inkscape:window-y="-8"
     inkscape:window-maximized="1"
     inkscape:current-layer="Layer_1" /><g
     id="g3"
     style="fill:#ababff;fill-opacity:1"
     transform="matrix(0,0.92191225,-0.92191225,0,492.06562,20.031254)"><path
       d="m 426.2,423.3 -326.8,0 C 83,423.3 71.2,407.8 75.4,392 l 55,-203.1 c 2.9,-10.8 12.8,-18.3 24,-18.3 l 326.8,0 c 16.4,0 28.2,15.5 24,31.3 l -55,203.1 c -3,10.7 -12.8,18.3 -24,18.3 z"
       id="XMLID_2_"
       style="fill:#ababff;fill-opacity:1"
       inkscape:connector-curvature="0" /><path
       d="m 112.1,183.9 c 5.2,-19.1 22.6,-32.4 42.3,-32.4 l 238.9,0 -1.7,-6.6 c -2.8,-11 -12.7,-18.7 -24.1,-18.7 l -170,0 c -11.3,0 -21.3,-7.7 -24.1,-18.7 -2.8,-11 -12.7,-18.7 -24.1,-18.7 l -118.5,0 c -16.6,0 -28.5,16 -23.8,31.9 l 1.6,5.5 57.5,227.3 46,-169.6 z"
       id="XMLID_1_"
       style="fill:#ababff;fill-opacity:1"
       inkscape:connector-curvature="0" /></g></svg>